# xmcd CD database file
#
# Track frame offsets:
#	150
#	12922
#	26012
#	38567
#	50702
#	63923
#	74763
#	86398
#	99848
#	116268
#	128178
#	144160
#	158110
#	174578
#	189316
#	204253
#	218277
#	231485
#	247556
#	260644
#
# Disc length: 3611 seconds
#
# Revision: 0
# Processed by: cddbd v1.5.2PL0 Copyright (c) Steve Scherf et al.
# Submitted via: CDex 1.81
#
DISCID=020e1914
DTITLE=Mickey Gilley - 17 # 1's (1974-1983)
DYEAR=1983
DGENRE=Country
TTITLE0=Room Full of Roses
TTITLE1=I Overlooked an Orchid
TTITLE2=City Lights
TTITLE3=Window up Above
TTITLE4=Don't the Girl's all Get Prettier at Closing Time
TTITLE5=Bring it on Home to Me
TTITLE6=She's Pulling Me Back Again
TTITLE7=True Love Ways
TTITLE8=Stand by Me
TTITLE9=That's All that Matters to Me
TTITLE10=A Headache Tomorrow (Or a Heartche Tonight)
TTITLE11=You Don't Know Me
TTITLE12=Lonely Nights
TTITLE13=Put Your Dreams Away
TTITLE14=Talk to Me
TTITLE15=Fool for Your Love
TTITLE16=Paradise Tonight
TTITLE17=She Reminded Me of You
TTITLE18=Object of My Affection
TTITLE19=She Called Me Baby
EXTD=YEAR: 1983
EXTT0=
EXTT1=
EXTT2=
EXTT3=
EXTT4=
EXTT5=
EXTT6=
EXTT7=
EXTT8=
EXTT9=
EXTT10=
EXTT11=
EXTT12=
EXTT13=
EXTT14=
EXTT15=
EXTT16=
EXTT17=
EXTT18=
EXTT19=
PLAYORDER=
